# xmcd
#
# Track frame offsets:
#	150
#	32159
#	58314
#	80058
#	112983
#	142881
#	186018
#	227118
#
# Disc length: 3353 seconds
#
# Revision: 1
# Processed by: cddbd v1.5.1PL0 Copyright (c) Steve Scherf et al.
# Submitted via: audiograbber 1.83.01
#
DISCID=690d1708
DTITLE=Artistes variés - Le jazz à Espace musique
DYEAR=2005
DGENRE=Jazz
TTITLE0=Joe Sealy, Paul Novotny (P. Novotny) - Autumn Waltz
TTITLE1=Trio Lorraine Desmarais (L. Desmarais) - Clair de lune
TTITLE2=Denzal Sinclaire Quintet (Richard Rodgers/Lorenz Hart) - A Ship Without
TTITLE2=a Sail
TTITLE3=Oliver Jones Trio (O. Jones) - Something for Chuck
TTITLE4=HRP Herskowitz Rosenblatt Project (Abraham Brudno) - Under Your White S
TTITLE4=tarry Heaven
TTITLE5=Trio Michel Donato (M. Donato) - Petite brise
TTITLE6=Ranee Lee and Friends (Billie Holiday) - Fine and Mellow
TTITLE7=Michael Kaeshammer Trio (Thomas "Fats" Waller) - Handful of Keys
EXTD=
EXTT0=
EXTT1=
EXTT2=
EXTT3=
EXTT4=
EXTT5=
EXTT6=
EXTT7=
PLAYORDER=
